<?xml version="1.0" encoding="UTF-8" standalone="no"?>
<svg
   xmlns:dc="http://purl.org/dc/elements/1.1/"
   xmlns:cc="http://creativecommons.org/ns#"
   xmlns:rdf="http://www.w3.org/1999/02/22-rdf-syntax-ns#"
   xmlns:svg="http://www.w3.org/2000/svg"
   xmlns="http://www.w3.org/2000/svg"
   xmlns:sodipodi="http://sodipodi.sourceforge.net/DTD/sodipodi-0.dtd"
   xmlns:inkscape="http://www.inkscape.org/namespaces/inkscape"
   sodipodi:docname="Logo.svg"
   inkscape:version="1.0 (4035a4fb49, 2020-05-01)"
   id="svg8"
   version="1.1"
   viewBox="0 0 12.7 12.7"
   height="48"
   width="48">
  <defs
     id="defs2" />
  <sodipodi:namedview
     inkscape:window-maximized="1"
     inkscape:window-y="-8"
     inkscape:window-x="1272"
     inkscape:window-height="1017"
     inkscape:window-width="1920"
     units="px"
     showgrid="false"
     inkscape:document-rotation="0"
     inkscape:current-layer="layer1"
     inkscape:document-units="mm"
     inkscape:cy="23.444614"
     inkscape:cx="14.7274"
     inkscape:zoom="11.313708"
     inkscape:pageshadow="2"
     inkscape:pageopacity="0.0"
     borderopacity="1.0"
     bordercolor="#666666"
     pagecolor="#ffffff"
     id="base" />
  <metadata
     id="metadata5">
    <rdf:RDF>
      <cc:Work
         rdf:about="">
        <dc:format>image/svg+xml</dc:format>
        <dc:type
           rdf:resource="http://purl.org/dc/dcmitype/StillImage" />
        <dc:title></dc:title>
      </cc:Work>
    </rdf:RDF>
  </metadata>
  <g
     id="layer1"
     inkscape:groupmode="layer"
     inkscape:label="Layer 1">
    <path
       d="m 8.6982902,0.58637181 c -0.1700144,-0.005807 -0.3198776,0.013881 -0.3803386,0.0583944 -0.070233,0.0608857 -0.056319,0.17445264 -0.038757,0.24959708 0.00935,0.073114 0.043815,0.17648631 0.07183,0.28318691 0.056032,0.2134068 0.1427742,0.4779414 0.2154906,0.749825 0.047962,0.1793206 0.081023,0.3541972 0.1038696,0.5177979 -0.00675,0.00248 -0.013401,0.00526 -0.020154,0.00775 C 9.323535,2.341834 10.041027,2.2283521 10.811856,2.1118601 10.770402,2.0136454 10.69783,1.8991166 10.63874,1.8064524 10.508858,1.6027756 10.291392,1.3812178 10.034643,1.1775502 9.7778936,0.97388229 9.4857793,0.79044211 9.200585,0.67938937 9.0579886,0.62386269 8.8683027,0.59217085 8.6982902,0.58637181 Z M 8.650231,2.4529245 C -5.4040259,4.7717804 1.2662286,5.967002 7.0813347,8.1797065 c -0.0144,-0.34863 -0.080626,-0.6904352 -0.2418459,-1.043347 0,0 -2.429157,-0.6932938 -2.378666,-2.433443 C 4.4680528,4.4538121 6.1884448,4.123538 6.5966098,3.8414702 7.0176585,3.5504979 7.6264851,2.9167824 8.1649894,2.6529124 8.3222318,2.575865 8.486133,2.5134392 8.650231,2.4529245 Z M 7.0813347,8.1797065 C 7.1076372,8.816507 6.9546908,9.4761331 6.8467236,10.269502 l 5.5950074,1.700154 C 12.132156,10.370756 9.6926692,9.173345 7.0813347,8.1797065 Z M 7.8487298,3.4094554 c -0.059706,-0.00446 -0.1184426,2.99e-4 -0.1720826,0.019637 -0.05364,0.019338 -0.1039202,0.056662 -0.1400432,0.1162722 -0.036135,0.059612 -0.053323,0.1389602 -0.05426,0.2294432 -9.06e-4,0.08699 0.017569,0.162451 0.05426,0.2191081 0.036696,0.056659 0.088257,0.092117 0.1415934,0.1069703 0.1066683,0.029719 0.2274249,0.00358 0.348299,-0.037724 C 8.2682407,3.9805482 8.5050203,3.824417 8.5050203,3.824417 l 0.120923,-0.077515 -0.1235067,-0.082166 c 0,0 -0.2321753,-0.14732 -0.4733562,-0.219108 -0.060295,-0.017931 -0.1206448,-0.031713 -0.1803506,-0.036173 z m -6.564974,2.8556394 -0.021704,0.059945 0.146761,0.092501 c 0.012715,0.0081 0.021362,0.019923 0.026355,0.035657 0.00527,0.014965 0.00488,0.031423 -0.00155,0.049093 l -0.44079998,1.212329 c -0.0192748,0.053008 -0.0378072,0.1019646 -0.0552938,0.1477947 -0.0172072,0.045062 -0.0337381,0.08614 -0.0496094,0.1229899 -0.0158725,0.036849 -0.03101,0.06903 -0.045992,0.096635 -0.0142551,0.027869 -0.0280855,0.05009 -0.0413411,0.066146 -0.0168366,0.019101 -0.0373706,0.031027 -0.0614949,0.036174 -0.0233969,0.00541 -0.0538247,0.00161 -0.0909505,-0.011886 -0.0218389,-0.00794 -0.0424079,-0.018985 -0.0620117,-0.033073 -0.0198833,-0.013319 -0.038806,-0.028315 -0.0568441,-0.044442 -0.0180378,-0.016127 -0.0348988,-0.032741 -0.0506429,-0.050643 -0.0164724,-0.018167 -0.0316779,-0.036384 -0.0449585,-0.05426 l -0.0258387,-0.00982 -0.10593667,0.1886191 c 0.011318,0.01194 0.0250986,0.024175 0.0413411,0.036174 0.0152371,0.012498 0.0309519,0.023911 0.0470256,0.034106 0.0157947,0.010962 0.0316369,0.020547 0.0475423,0.028939 0.0151772,0.00813 0.0292712,0.014355 0.0423747,0.01912 0.0633327,0.023029 0.1290425,0.030768 0.19688722,0.023255 0.0675654,-0.00674 0.13259565,-0.028755 0.19482014,-0.066146 0.0622245,-0.037391 0.11970271,-0.089538 0.1731161,-0.1570964 0.053134,-0.06679 0.097848,-0.148931 0.1333251,-0.2464966 L 1.6377393,6.5761871 c 0.00615,-0.016901 0.015802,-0.029125 0.029456,-0.037207 0.013933,-0.00885 0.028697,-0.012556 0.043925,-0.011369 l 0.155546,0.017053 0.021704,-0.059945 z m 0.6795451,0.2470134 -0.021704,0.059945 0.1302246,0.086299 c 0.013163,0.00914 0.022632,0.021209 0.027905,0.036174 0.006,0.015229 0.00591,0.03194 -5.167e-4,0.049609 l -0.3653523,1.00459 c -0.022065,0.060691 -0.032076,0.1238165 -0.029456,0.1891358 0.00363,0.064816 0.02101,0.127889 0.051677,0.1886191 0.031395,0.060995 0.076767,0.1166815 0.1364257,0.1679482 0.060387,0.051531 0.1369922,0.09454 0.2294434,0.1281575 0.03567,0.012968 0.075323,0.022816 0.1198893,0.029456 0.044567,0.00664 0.090548,0.0088 0.1374593,0.00672 0.047919,-0.00258 0.09575,-0.010913 0.1436605,-0.024805 0.04791,-0.013892 0.093102,-0.034439 0.135909,-0.061495 0.043085,-0.027824 0.082405,-0.06364 0.1173054,-0.1074869 0.035629,-0.043582 0.064707,-0.09642 0.087333,-0.1586466 L 3.2092195,7.1554799 c 0.00615,-0.016901 0.015802,-0.029125 0.029456,-0.037207 0.013653,-0.00808 0.02818,-0.011522 0.043408,-0.010335 l 0.1596803,0.00982 0.021704,-0.059945 -0.4898928,-0.1782852 -0.022221,0.059945 0.1286743,0.095085 c 0.012435,0.00887 0.021599,0.020692 0.026872,0.035657 0.00555,0.014197 0.00488,0.029873 -0.00155,0.047542 L 2.7679028,8.045348 c -0.0095,0.02612 -0.021968,0.053807 -0.038241,0.082682 -0.016269,0.028877 -0.036395,0.056453 -0.059945,0.082682 -0.023549,0.026229 -0.050413,0.049784 -0.081132,0.070797 -0.030718,0.021013 -0.066017,0.037163 -0.10542,0.048059 C 2.4447688,8.339963 2.4017408,8.344014 2.3544905,8.342487 2.3075195,8.340197 2.2563365,8.329015 2.2010115,8.308897 2.1464157,8.2890451 2.1008152,8.2652156 2.0640699,8.2370674 2.0280525,8.2091843 1.9995837,8.1792491 1.978287,8.1471506 1.9579977,8.1145484 1.9434701,8.0806547 1.9348788,8.045348 1.9270157,8.010306 1.9232555,7.9751447 1.92351,7.9404449 1.9244913,7.9060099 1.92831,7.8722439 1.935396,7.839159 1.943206,7.806338 1.951974,7.776647 1.961751,7.749759 L 2.3007479,6.8175159 c 0.00615,-0.016901 0.016318,-0.029124 0.029972,-0.037207 0.014661,-0.00858 0.029731,-0.012555 0.044959,-0.011369 l 0.155546,0.01757 0.021704,-0.059945 z m 1.5859498,0.5767091 -0.021704,0.059945 0.1400431,0.095085 c 0.012435,0.00887 0.021082,0.020692 0.026355,0.035657 0.00527,0.014965 0.00488,0.031423 -0.00155,0.049093 L 3.2319573,8.5941517 c -0.00587,0.016133 -0.015522,0.028357 -0.029456,0.037207 -0.013654,0.00808 -0.02818,0.011522 -0.043408,0.010335 l -0.1596802,-0.00982 -0.021704,0.059945 0.4904095,0.1782839 0.021704,-0.059945 -0.1286743,-0.095085 c -0.012434,-0.00887 -0.021319,-0.020427 -0.026872,-0.034623 -0.00527,-0.014965 -0.00488,-0.030906 0.00155,-0.048576 l 0.4309814,-1.1859742 0.00362,0.00103 0.046509,0.2113566 0.3555338,1.4810467 0.073381,0.026872 0.1322917,-0.2625161 0.4247803,-1.1684042 c 0.00615,-0.016901 0.016318,-0.029642 0.029972,-0.037724 0.014382,-0.00781 0.029214,-0.011005 0.044442,-0.00982 l 0.1591633,0.00982 0.022221,-0.059945 L 4.5672789,7.458815 4.5455749,7.51876 4.6742494,7.613845 c 0.012435,0.00887 0.021082,0.020692 0.026355,0.035657 0.00555,0.014197 0.00488,0.03039 -0.00155,0.048059 L 4.302693,8.7884551 4.300109,8.7879384 4.2577344,8.5951852 3.9306227,7.22731 Z m 1.6128214,0.5865273 -0.021704,0.059945 0.1322916,0.087333 c 0.012435,0.00887 0.021598,0.020692 0.026872,0.035657 0.006,0.015229 0.00591,0.031423 -5.167e-4,0.049093 l -0.4645717,1.276924 c -0.00615,0.016901 -0.015802,0.029642 -0.029456,0.037724 -0.013653,0.00808 -0.028485,0.011272 -0.044442,0.00982 l -0.1581299,-0.017053 -0.022221,0.059945 0.5922118,0.2149739 0.021704,-0.059944 -0.131258,-0.08785 c -0.013162,-0.00914 -0.022352,-0.020944 -0.027905,-0.03514 -0.00527,-0.014965 -0.00488,-0.031423 0.00155,-0.049093 l 0.4640545,-1.276408 c 0.00615,-0.016901 0.016318,-0.029642 0.029972,-0.037724 0.014661,-0.00858 0.02973,-0.012039 0.044958,-0.010852 l 0.1565796,0.01757 0.021704,-0.059945 z m 1.3399698,0.4599204 -0.22841,0.2196248 -0.870231,1.0376628 c -0.011411,0.013247 -0.024919,0.024235 -0.040308,0.032556 -0.015388,0.00832 -0.031238,0.012568 -0.047025,0.012919 l -0.1085205,-0.0031 -0.022221,0.059945 0.4361492,0.1581298 0.021704,-0.059945 L 5.4747143,9.4783355 5.8152622,9.058206 6.352697,9.2535429 6.3532138,9.8028634 6.148575,9.7770252 l -0.021704,0.059945 0.5395021,0.1963708 0.021704,-0.05995 -0.085783,-0.0677 c -0.012152,-0.0096 -0.021452,-0.0225 -0.027905,-0.03876 -0.00617,-0.01703 -0.0093,-0.033929 -0.00982,-0.050643 L 6.558886,8.1559356 Z m -0.153479,0.2790526 0.0031,0.00155 -0.00413,0.1746662 0.00413,0.5493205 -0.4630208,-0.1684652 z"
       style="font-style:normal;font-variant:normal;font-weight:normal;font-stretch:normal;font-size:10.5833px;line-height:1.25;font-family:Corbel;-inkscape-font-specification:Corbel;letter-spacing:0px;word-spacing:0px;fill:#000000;fill-opacity:1;stroke:none;stroke-width:0.710631"
       id="path1406" />
  </g>
</svg>
